<svg version="1.1" id="Layer_1" xmlns="http://www.w3.org/2000/svg" xmlns:xlink="http://www.w3.org/1999/xlink" x="0px" y="0px"
	width="971px" height="168px" viewBox="0 0 2247 393" enable-background="new 0 0 2247 393" xml:space="preserve">
<path fill="#FFFFFF" opacity="1.000000" stroke="none" 
	d="
M0.999997,264.000000 
	C1.000000,176.412613 1.000000,88.825226 1.000000,1.000000 
	C65.029175,1.000000 129.058640,1.000000 193.327179,1.350799 
	C183.630112,1.992006 174.485657,5.130628 166.023193,10.051440 
	C143.742996,23.007093 121.577011,36.159691 99.396568,49.286270 
	C72.554131,65.171860 45.835106,81.268532 18.880636,96.961174 
	C5.384517,104.818489 -0.700045,115.489113 3.089356,130.477722 
	C1.966932,138.295700 4.632925,144.954941 9.003925,150.210434 
	C21.469955,165.199036 41.089802,168.252457 58.294498,158.140137 
	C68.297050,152.260986 78.088135,146.023163 88.011978,140.008774 
	C119.741806,120.778801 151.607178,101.768608 183.163025,82.257622 
	C193.597183,75.806190 202.784714,75.635689 213.216431,82.413132 
	C230.200790,93.447807 247.803467,103.530205 265.135834,114.029938 
	C288.342194,128.088013 311.649628,141.983856 334.687653,156.312790 
	C344.144745,162.194809 354.114594,165.858902 365.035217,163.753189 
	C382.611725,160.364059 396.245911,147.185287 393.917786,125.627388 
	C394.441650,116.575562 391.762573,109.150284 385.035309,103.654007 
	C381.500885,100.766342 377.482330,98.436813 373.549164,96.077393 
	C352.140015,83.234650 330.697235,70.447876 309.250885,57.667309 
	C286.954681,44.380276 264.713196,30.999054 242.303802,17.905468 
	C231.714890,11.718454 221.570023,4.427283 208.985153,2.461328 
	C206.637955,2.094657 204.327438,1.493138 202.000000,1.000001 
	C884.000000,1.000000 1566.000000,1.000000 2248.000000,1.000000 
	C2248.000000,43.437515 2248.000000,85.762810 2247.531250,128.544052 
	C2236.130371,129.000000 2225.198242,129.000000 2213.862305,129.000000 
	C2213.862305,147.606461 2213.862305,165.673370 2213.862305,183.722443 
	C2193.052246,183.722443 2172.656494,183.722443 2151.850586,183.722443 
	C2151.850586,165.381729 2151.850586,147.314835 2151.850586,129.288147 
	C2140.369385,129.288147 2129.302979,129.288147 2118.276855,129.288147 
	C2118.276855,176.630096 2118.276855,223.683350 2118.276855,270.716034 
	C2129.622314,270.716034 2140.688477,270.716034 2152.161621,270.716034 
	C2152.161621,251.369080 2152.161621,232.302887 2152.161621,213.289276 
	C2172.971436,213.289276 2193.367432,213.289276 2214.172363,213.289276 
	C2214.172363,232.641617 2214.172363,251.708099 2214.172363,271.000000 
	C2225.722168,271.000000 2236.861084,271.000000 2248.000000,271.000000 
	C2248.000000,311.992767 2248.000000,352.985565 2248.000000,394.000000 
	C1511.637329,394.000000 775.274597,394.000000 38.630688,393.647247 
	C40.891190,392.706238 43.701733,392.625092 45.929306,391.444214 
	C57.167587,385.486847 68.325882,379.369141 79.377594,373.071411 
	C97.973640,362.474548 116.467041,351.697601 135.005707,341.000031 
	C149.582169,332.588867 164.301880,324.414673 178.695816,315.702118 
	C190.300003,308.678162 201.897995,305.968140 214.359024,313.103455 
	C224.004593,318.626587 233.622955,324.197327 243.244247,329.762787 
	C259.507629,339.170441 275.764282,348.589813 292.022827,358.005829 
	C305.878540,366.030182 319.693451,374.125977 333.601227,382.059113 
	C343.660309,387.796967 353.203827,394.256592 365.988770,393.218414 
	C378.610199,392.193512 391.806610,381.763580 394.048492,369.005768 
	C394.012848,369.008545 394.031464,369.077606 394.337402,368.921753 
	C394.707123,367.874634 394.770905,366.983398 394.907593,365.773315 
	C394.998230,365.018799 395.015961,364.583099 395.393494,363.894470 
	C395.784973,331.780457 395.816620,299.919373 395.908813,267.621704 
	C395.647247,264.580963 395.348389,261.973633 394.999146,259.373047 
	C393.108978,245.298340 385.317780,235.175858 373.550140,227.885391 
	C366.602081,223.580872 359.364136,219.745804 352.392792,215.477142 
	C342.208099,209.240967 332.238953,202.649994 322.005615,196.496872 
	C311.407196,190.124222 300.495087,184.271912 289.917877,177.865570 
	C278.173462,170.752319 266.730072,163.143036 255.008682,155.990509 
	C246.339172,150.700317 237.493652,145.689087 228.614914,140.754425 
	C222.049164,137.105316 215.625748,132.707108 208.555893,130.584152 
	C199.925797,127.992645 190.654404,127.403122 182.085999,131.953445 
	C178.906891,133.641739 175.939484,135.725327 172.849487,137.585327 
	C152.860184,149.617630 132.830292,161.582840 112.877686,173.675613 
	C85.481064,190.280060 58.251751,207.163971 30.721468,223.542755 
	C20.037916,229.898773 9.898160,236.516251 5.225011,248.650314 
	C3.327095,253.578323 2.379822,258.872467 0.999997,264.000000 
M1598.603271,232.000000 
	C1607.435913,232.000000 1616.290161,232.378510 1625.094116,231.875809 
	C1631.699463,231.498672 1638.390991,230.558792 1644.779419,228.868774 
	C1660.052612,224.828384 1672.222778,216.472534 1678.785522,201.508743 
	C1683.151733,191.553497 1683.916260,181.213669 1682.095093,170.450073 
	C1680.320801,159.963821 1675.941284,150.705536 1668.135376,143.941315 
	C1656.240234,133.633713 1641.743286,129.101822 1625.998169,129.024597 
	C1605.500122,128.924057 1585.001099,128.995178 1564.502563,129.010330 
	C1563.067505,129.011398 1561.632324,129.160278 1560.307861,129.234238 
	C1560.307861,176.664612 1560.307861,223.731781 1560.307861,270.680115 
	C1571.355469,270.680115 1582.092651,270.680115 1593.065674,270.680115 
	C1593.065674,257.743530 1593.065674,245.124741 1593.065674,232.000000 
	C1594.744141,232.000000 1596.185791,232.000000 1598.603271,232.000000 
M1873.000000,220.375748 
	C1873.000000,190.025497 1873.000000,159.675232 1873.000000,129.257782 
	C1862.767334,129.257782 1852.033691,129.257782 1841.000000,129.257782 
	C1841.000000,130.814316 1841.013550,132.116043 1840.997925,133.417404 
	C1840.667358,160.994675 1840.510498,188.575912 1839.884399,216.146484 
	C1839.712280,223.723511 1837.390503,230.932846 1831.306519,236.284805 
	C1823.255493,243.366943 1813.710205,245.889343 1803.476929,243.827072 
	C1794.232788,241.964111 1785.917969,237.488235 1782.576660,227.885757 
	C1780.583252,222.156555 1779.245361,215.901077 1779.156250,209.859406 
	C1778.785278,184.706009 1779.000000,159.543961 1779.000000,134.385086 
	C1779.000000,132.633148 1779.000000,130.881195 1779.000000,129.348694 
	C1767.249023,129.348694 1756.179199,129.348694 1745.000000,129.348694 
	C1745.000000,146.184921 1744.739868,162.677963 1745.074585,179.158936 
	C1745.396240,194.994766 1745.291992,210.950470 1747.281860,226.611191 
	C1749.446289,243.644760 1758.675415,256.852570 1774.355347,265.073273 
	C1792.516968,274.595154 1811.509155,274.906158 1830.921387,270.519409 
	C1841.588013,268.109070 1850.996704,262.927399 1858.396362,254.938782 
	C1867.101074,245.541611 1871.307861,233.884903 1873.000000,220.375748 
M2035.604126,132.947906 
	C2017.007935,126.081474 1997.892456,124.352936 1978.522827,128.323563 
	C1966.357422,130.817352 1955.224365,135.621841 1947.281738,146.119675 
	C1937.574341,158.949799 1935.762207,178.415604 1945.096680,192.047638 
	C1951.435913,201.305481 1961.312500,205.864548 1971.705322,208.916504 
	C1983.125977,212.270187 1994.868408,214.565872 2006.193604,218.188492 
	C2011.067993,219.747665 2016.283691,222.616653 2019.489380,226.444229 
	C2024.002563,231.833237 2018.429565,241.656906 2010.165039,243.893463 
	C1998.238403,247.121109 1986.212646,247.028366 1974.531250,243.014175 
	C1965.221802,239.815170 1956.198486,235.784027 1946.905396,232.065155 
	C1943.546997,239.548218 1939.796509,247.904648 1935.721069,256.985168 
	C1940.184082,259.317932 1944.610352,261.874786 1949.235352,263.998749 
	C1959.154297,268.553833 1969.576294,271.016205 1980.492065,272.138641 
	C1994.486206,273.577637 2008.057373,273.230133 2021.736450,269.194794 
	C2041.338623,263.412170 2056.091064,246.977615 2054.094727,224.605118 
	C2053.152344,214.040909 2048.347656,205.984924 2040.010254,200.074921 
	C2029.839111,192.864929 2017.852295,190.032288 2005.986572,186.942413 
	C1997.150391,184.641418 1988.219604,182.396179 1979.767822,179.029541 
	C1973.707153,176.615417 1970.821899,172.463470 1973.132202,165.023407 
	C1974.998657,159.012177 1980.351440,156.248764 1986.045898,155.088257 
	C2000.347534,152.173676 2014.239502,154.090530 2027.552612,159.971176 
	C2037.865356,164.526596 2037.828979,164.609009 2042.385986,154.159317 
	C2049.166016,138.611923 2049.166260,138.611374 2036.903809,133.027634 
	C2036.763062,132.963531 2036.573975,133.005600 2035.604126,132.947906 
M1136.000000,189.500000 
	C1136.000000,216.583237 1136.000000,243.666473 1136.000000,270.709290 
	C1143.302124,270.709290 1150.036987,270.709290 1157.189453,270.709290 
	C1157.189453,236.418655 1157.189453,202.416718 1157.189453,168.414795 
	C1158.948853,168.914352 1159.695679,169.990128 1160.516846,171.005783 
	C1171.891357,185.074707 1183.308594,199.109329 1194.650513,213.204422 
	C1209.758667,231.980026 1224.804077,250.806046 1239.912231,269.581573 
	C1240.420410,270.213074 1241.307373,270.920258 1242.032104,270.936157 
	C1247.288452,271.051544 1252.548462,270.998108 1257.709961,270.998108 
	C1257.709961,223.336029 1257.709961,176.286423 1257.709961,129.298630 
	C1250.681396,129.298630 1243.946167,129.298630 1236.794434,129.298630 
	C1236.794434,163.588181 1236.794434,197.580948 1236.794434,232.337708 
	C1230.185913,224.244797 1224.075928,216.860168 1218.072998,209.389496 
	C1207.674683,196.448792 1197.340820,183.456345 1186.983521,170.482727 
	C1177.946777,159.163223 1168.968506,147.796249 1159.842407,136.549316 
	C1157.639648,133.834747 1155.299927,129.998672 1152.415527,129.340149 
	C1147.257080,128.162460 1141.636597,129.008423 1136.331665,129.008423 
	C1136.147217,129.909012 1136.027344,130.221954 1136.027100,130.535004 
	C1136.011841,149.856674 1136.006226,169.178329 1136.000000,189.500000 
M980.000000,154.562256 
	C980.000000,152.126572 980.000000,149.690887 980.000000,146.859161 
	C1006.611572,146.859161 1032.673706,146.859161 1058.716431,146.859161 
	C1058.716431,140.712891 1058.716431,134.978973 1058.716431,129.277588 
	C1025.375244,129.277588 992.318481,129.277588 959.263611,129.277588 
	C959.263611,176.607056 959.263611,223.658432 959.263611,270.742981 
	C993.584229,270.742981 1027.640503,270.742981 1061.733643,270.742981 
	C1061.733643,264.415344 1061.733643,258.348389 1061.733643,251.879013 
	C1034.408569,251.879013 1007.347046,251.879013 980.268433,251.879013 
	C980.268433,237.073288 980.268433,222.675858 980.268433,207.872894 
	C1003.930481,207.872894 1027.327271,207.872894 1050.722656,207.872894 
	C1050.722656,201.726181 1050.722656,195.992264 1050.722656,190.000000 
	C1038.812622,190.000000 1027.178589,190.000000 1015.544495,190.000000 
	C1003.781677,190.000000 992.018799,190.000000 980.000000,190.000000 
	C980.000000,178.146851 980.000000,166.846085 980.000000,154.562256 
M526.951782,189.565948 
	C533.426636,198.479065 543.144409,202.010498 553.075317,204.947403 
	C565.097717,208.502808 577.307739,211.430969 589.297119,215.087784 
	C595.581238,217.004456 601.388611,220.434906 603.931213,226.918976 
	C607.714600,236.567413 602.359070,247.364807 592.199036,250.890045 
	C580.325684,255.009796 568.140991,255.092957 555.960266,252.457764 
	C544.517578,249.982224 533.958008,245.434540 524.647949,237.457489 
	C523.609619,239.219788 522.699402,240.527740 522.024170,241.947449 
	C515.568542,255.521774 515.855042,256.450317 529.746826,263.272705 
	C544.423950,270.480804 560.053467,272.604797 576.265808,272.064270 
	C589.352112,271.627930 601.463867,268.605042 612.299316,260.987885 
	C622.607605,253.741302 628.612427,234.963821 625.416870,222.728622 
	C621.635071,208.248642 611.320251,201.183304 598.287842,197.070663 
	C584.501648,192.720139 570.467896,189.159775 556.634949,184.949677 
	C546.717957,181.931381 540.969116,175.101562 541.000000,167.265671 
	C541.035583,158.234085 546.631165,151.107635 556.726379,148.056335 
	C564.162354,145.808792 571.602661,144.855881 579.666199,145.711533 
	C591.884033,147.008011 602.943542,150.608124 613.463989,157.198593 
	C615.258911,152.921631 616.659058,148.631454 618.798279,144.748428 
	C621.070862,140.623428 619.476074,138.843460 615.892761,136.924835 
	C603.620117,130.353806 590.310791,127.995178 576.692261,127.060242 
	C565.996460,126.325958 555.625061,128.429504 545.561646,132.007324 
	C521.907104,140.417191 512.295776,169.173904 526.951782,189.565948 
M1410.500000,129.000000 
	C1380.750488,129.000000 1351.000977,129.000000 1321.290771,129.000000 
	C1321.290771,135.300995 1321.290771,141.035248 1321.290771,147.175903 
	C1337.311768,147.175903 1353.045898,147.175903 1369.167480,147.175903 
	C1369.167480,188.641418 1369.167480,229.695694 1369.167480,270.708740 
	C1376.303101,270.708740 1383.038086,270.708740 1390.161377,270.708740 
	C1390.161377,229.364609 1390.161377,188.310272 1390.161377,146.847260 
	C1406.621826,146.847260 1422.689209,146.847260 1438.708008,146.847260 
	C1438.708008,140.696808 1438.708008,134.962524 1438.708008,129.000000 
	C1429.445190,129.000000 1420.472656,129.000000 1410.500000,129.000000 
M822.000000,201.500000 
	C822.000000,177.412827 822.000000,153.325653 822.000000,129.297211 
	C814.685608,129.297211 807.949768,129.297211 801.287109,129.297211 
	C801.287109,176.649094 801.287109,223.703186 801.287109,270.715851 
	C833.967407,270.715851 866.359680,270.715851 898.705933,270.715851 
	C898.705933,264.359650 898.705933,258.291168 898.705933,251.820709 
	C873.017334,251.820709 847.620300,251.820709 822.000000,251.820709 
	C822.000000,235.108017 822.000000,218.804001 822.000000,201.500000 
M697.000000,173.500000 
	C697.000000,205.917557 697.000000,238.335098 697.000000,270.706482 
	C704.306885,270.706482 711.041626,270.706482 717.716187,270.706482 
	C717.716187,223.358093 717.716187,176.303757 717.716187,129.293427 
	C710.693604,129.293427 703.957825,129.293427 697.000000,129.293427 
	C697.000000,143.890442 697.000000,158.195221 697.000000,173.500000 
z"/>
<path fill="#6795FF" opacity="1.000000" stroke="none" 
	d="
M395.033661,364.147400 
	C395.015961,364.583099 394.998230,365.018799 394.671143,365.994019 
	C394.251648,367.381592 394.141541,368.229584 394.031433,369.077606 
	C394.031464,369.077606 394.012848,369.008545 393.726807,369.115784 
	C392.367188,370.265533 391.282593,371.296997 390.221710,372.352295 
	C384.465057,378.078369 376.898590,379.183136 369.807251,375.180786 
	C353.165497,365.788208 336.533508,356.377777 319.937561,346.904572 
	C285.594757,327.301117 251.305328,307.603943 216.935516,288.048004 
	C205.055786,281.288605 192.821716,281.014587 180.835876,287.659912 
	C163.252914,297.408478 145.827942,307.442841 128.365082,317.407013 
	C94.594803,336.676117 60.860970,356.009125 27.073946,375.248779 
	C19.996168,379.279144 12.556901,378.022095 6.618335,372.209717 
	C5.451784,371.068024 4.124177,370.090851 2.903967,369.023712 
	C2.937080,369.009613 2.966666,369.075226 3.005592,368.743103 
	C2.745851,367.621887 2.447184,366.832794 2.078654,365.699982 
	C1.672529,364.570831 1.336267,363.785400 1.000003,363.000000 
	C1.000000,330.312439 1.000000,297.624878 0.999997,264.468658 
	C2.379822,258.872467 3.327095,253.578323 5.225011,248.650314 
	C9.898160,236.516251 20.037916,229.898773 30.721468,223.542755 
	C58.251751,207.163971 85.481064,190.280060 112.877686,173.675613 
	C132.830292,161.582840 152.860184,149.617630 172.849487,137.585327 
	C175.939484,135.725327 178.906891,133.641739 182.085999,131.953445 
	C190.654404,127.403122 199.925797,127.992645 208.555893,130.584152 
	C215.625748,132.707108 222.049164,137.105316 228.614914,140.754425 
	C237.493652,145.689087 246.339172,150.700317 255.008682,155.990509 
	C266.730072,163.143036 278.173462,170.752319 289.917877,177.865570 
	C300.495087,184.271912 311.407196,190.124222 322.005615,196.496872 
	C332.238953,202.649994 342.208099,209.240967 352.392792,215.477142 
	C359.364136,219.745804 366.602081,223.580872 373.550140,227.885391 
	C385.317780,235.175858 393.108978,245.298340 394.999146,259.373047 
	C395.348389,261.973633 395.647247,264.580963 395.640381,267.930450 
	C395.207642,269.822296 395.013519,270.968842 395.013306,272.115448 
	C395.007935,302.792755 395.022491,333.470093 395.033661,364.147400 
z"/>
<path fill="#6795FF" opacity="1.000000" stroke="none" 
	d="
M201.555832,1.000001 
	C204.327438,1.493138 206.637955,2.094657 208.985153,2.461328 
	C221.570023,4.427283 231.714890,11.718454 242.303802,17.905468 
	C264.713196,30.999054 286.954681,44.380276 309.250885,57.667309 
	C330.697235,70.447876 352.140015,83.234650 373.549164,96.077393 
	C377.482330,98.436813 381.500885,100.766342 385.035309,103.654007 
	C391.762573,109.150284 394.441650,116.575562 393.670166,125.880997 
	C389.013336,146.163773 371.007385,154.809067 354.234497,145.020218 
	C330.689545,131.279099 307.321991,117.233643 283.899780,103.282692 
	C257.050354,87.290382 230.220245,71.265625 203.392227,55.237431 
	C199.470581,52.894474 195.632278,52.858925 191.689774,55.200634 
	C158.531982,74.895164 125.365143,94.574417 92.193146,114.244995 
	C75.321320,124.249756 58.457466,134.268356 41.541203,144.197571 
	C34.419201,148.377899 27.038492,149.128677 19.053699,146.272491 
	C10.948367,143.373215 6.797254,137.054214 3.143402,130.032028 
	C-0.700045,115.489113 5.384517,104.818489 18.880636,96.961174 
	C45.835106,81.268532 72.554131,65.171860 99.396568,49.286270 
	C121.577011,36.159691 143.742996,23.007093 166.023193,10.051440 
	C174.485657,5.130628 183.630112,1.992006 193.783142,1.350799 
	C196.370560,1.000000 198.741104,1.000000 201.555832,1.000001 
z"/>
<path fill="#181C1F" opacity="1.000000" stroke="none" 
	d="
M2248.000000,270.531342 
	C2236.861084,271.000000 2225.722168,271.000000 2214.172363,271.000000 
	C2214.172363,251.708099 2214.172363,232.641617 2214.172363,213.289276 
	C2193.367432,213.289276 2172.971436,213.289276 2152.161621,213.289276 
	C2152.161621,232.302887 2152.161621,251.369080 2152.161621,270.716034 
	C2140.688477,270.716034 2129.622314,270.716034 2118.276855,270.716034 
	C2118.276855,223.683350 2118.276855,176.630096 2118.276855,129.288147 
	C2129.302979,129.288147 2140.369385,129.288147 2151.850586,129.288147 
	C2151.850586,147.314835 2151.850586,165.381729 2151.850586,183.722443 
	C2172.656494,183.722443 2193.052246,183.722443 2213.862305,183.722443 
	C2213.862305,165.673370 2213.862305,147.606461 2213.862305,129.000000 
	C2225.198242,129.000000 2236.130371,129.000000 2247.531250,129.000000 
	C2248.000000,176.020889 2248.000000,223.041794 2248.000000,270.531342 
z"/>
<path fill="#5071BF" opacity="1.000000" stroke="none" 
	d="
M2.870855,369.037811 
	C4.124177,370.090851 5.451784,371.068024 6.618335,372.209717 
	C12.556901,378.022095 19.996168,379.279144 27.073946,375.248779 
	C60.860970,356.009125 94.594803,336.676117 128.365082,317.407013 
	C145.827942,307.442841 163.252914,297.408478 180.835876,287.659912 
	C192.821716,281.014587 205.055786,281.288605 216.935516,288.048004 
	C251.305328,307.603943 285.594757,327.301117 319.937561,346.904572 
	C336.533508,356.377777 353.165497,365.788208 369.807251,375.180786 
	C376.898590,379.183136 384.465057,378.078369 390.221710,372.352295 
	C391.282593,371.296997 392.367188,370.265533 393.762451,369.113007 
	C391.806610,381.763580 378.610199,392.193512 365.988770,393.218414 
	C353.203827,394.256592 343.660309,387.796967 333.601227,382.059113 
	C319.693451,374.125977 305.878540,366.030182 292.022827,358.005829 
	C275.764282,348.589813 259.507629,339.170441 243.244247,329.762787 
	C233.622955,324.197327 224.004593,318.626587 214.359024,313.103455 
	C201.897995,305.968140 190.300003,308.678162 178.695816,315.702118 
	C164.301880,324.414673 149.582169,332.588867 135.005707,341.000031 
	C116.467041,351.697601 97.973640,362.474548 79.377594,373.071411 
	C68.325882,379.369141 57.167587,385.486847 45.929306,391.444214 
	C43.701733,392.625092 40.891190,392.706238 38.174736,393.647247 
	C35.958332,394.000000 33.916668,394.000000 31.255291,393.642761 
	C16.571598,392.810974 3.729832,379.753906 2.870855,369.037811 
z"/>
<path fill="#FFFFFF" opacity="1.000000" stroke="none" 
	d="
M2.903968,369.023712 
	C3.729832,379.753906 16.571598,392.810974 30.817791,393.642761 
	C21.072283,394.000000 11.144567,394.000000 1.000000,394.000000 
	C1.000000,383.980133 1.000000,373.958740 1.000003,363.468658 
	C1.336267,363.785400 1.672529,364.570831 2.027086,366.045227 
	C2.352477,367.514557 2.659574,368.294891 2.966668,369.075226 
	C2.966666,369.075226 2.937080,369.009613 2.903968,369.023712 
z"/>
<path fill="#181C1F" opacity="1.000000" stroke="none" 
	d="
M1598.115356,232.000000 
	C1596.185791,232.000000 1594.744141,232.000000 1593.065674,232.000000 
	C1593.065674,245.124741 1593.065674,257.743530 1593.065674,270.680115 
	C1582.092651,270.680115 1571.355469,270.680115 1560.307861,270.680115 
	C1560.307861,223.731781 1560.307861,176.664612 1560.307861,129.234238 
	C1561.632324,129.160278 1563.067505,129.011398 1564.502563,129.010330 
	C1585.001099,128.995178 1605.500122,128.924057 1625.998169,129.024597 
	C1641.743286,129.101822 1656.240234,133.633713 1668.135376,143.941315 
	C1675.941284,150.705536 1680.320801,159.963821 1682.095093,170.450073 
	C1683.916260,181.213669 1683.151733,191.553497 1678.785522,201.508743 
	C1672.222778,216.472534 1660.052612,224.828384 1644.779419,228.868774 
	C1638.390991,230.558792 1631.699463,231.498672 1625.094116,231.875809 
	C1616.290161,232.378510 1607.435913,232.000000 1598.115356,232.000000 
M1649.000000,180.480225 
	C1649.446777,168.885345 1642.358276,161.989563 1635.052612,159.117905 
	C1621.451660,153.771652 1607.196411,156.649475 1593.325073,156.004913 
	C1593.325073,172.370743 1593.325073,188.104492 1593.325073,203.999863 
	C1604.465942,203.999863 1615.287598,204.214050 1626.097168,203.943100 
	C1638.316772,203.636795 1648.826294,193.063843 1649.000000,180.480225 
z"/>
<path fill="#181C1F" opacity="1.000000" stroke="none" 
	d="
M1873.000000,220.831116 
	C1871.307861,233.884903 1867.101074,245.541611 1858.396362,254.938782 
	C1850.996704,262.927399 1841.588013,268.109070 1830.921387,270.519409 
	C1811.509155,274.906158 1792.516968,274.595154 1774.355347,265.073273 
	C1758.675415,256.852570 1749.446289,243.644760 1747.281860,226.611191 
	C1745.291992,210.950470 1745.396240,194.994766 1745.074585,179.158936 
	C1744.739868,162.677963 1745.000000,146.184921 1745.000000,129.348694 
	C1756.179199,129.348694 1767.249023,129.348694 1779.000000,129.348694 
	C1779.000000,130.881195 1779.000000,132.633148 1779.000000,134.385086 
	C1779.000000,159.543961 1778.785278,184.706009 1779.156250,209.859406 
	C1779.245361,215.901077 1780.583252,222.156555 1782.576660,227.885757 
	C1785.917969,237.488235 1794.232788,241.964111 1803.476929,243.827072 
	C1813.710205,245.889343 1823.255493,243.366943 1831.306519,236.284805 
	C1837.390503,230.932846 1839.712280,223.723511 1839.884399,216.146484 
	C1840.510498,188.575912 1840.667358,160.994675 1840.997925,133.417404 
	C1841.013550,132.116043 1841.000000,130.814316 1841.000000,129.257782 
	C1852.033691,129.257782 1862.767334,129.257782 1873.000000,129.257782 
	C1873.000000,159.675232 1873.000000,190.025497 1873.000000,220.831116 
z"/>
<path fill="#181C1F" opacity="1.000000" stroke="none" 
	d="
M2036.005859,132.973007 
	C2036.573975,133.005600 2036.763062,132.963531 2036.903809,133.027634 
	C2049.166260,138.611374 2049.166016,138.611923 2042.385986,154.159317 
	C2037.828979,164.609009 2037.865356,164.526596 2027.552612,159.971176 
	C2014.239502,154.090530 2000.347534,152.173676 1986.045898,155.088257 
	C1980.351440,156.248764 1974.998657,159.012177 1973.132202,165.023407 
	C1970.821899,172.463470 1973.707153,176.615417 1979.767822,179.029541 
	C1988.219604,182.396179 1997.150391,184.641418 2005.986572,186.942413 
	C2017.852295,190.032288 2029.839111,192.864929 2040.010254,200.074921 
	C2048.347656,205.984924 2053.152344,214.040909 2054.094727,224.605118 
	C2056.091064,246.977615 2041.338623,263.412170 2021.736450,269.194794 
	C2008.057373,273.230133 1994.486206,273.577637 1980.492065,272.138641 
	C1969.576294,271.016205 1959.154297,268.553833 1949.235352,263.998749 
	C1944.610352,261.874786 1940.184082,259.317932 1935.721069,256.985168 
	C1939.796509,247.904648 1943.546997,239.548218 1946.905396,232.065155 
	C1956.198486,235.784027 1965.221802,239.815170 1974.531250,243.014175 
	C1986.212646,247.028366 1998.238403,247.121109 2010.165039,243.893463 
	C2018.429565,241.656906 2024.002563,231.833237 2019.489380,226.444229 
	C2016.283691,222.616653 2011.067993,219.747665 2006.193604,218.188492 
	C1994.868408,214.565872 1983.125977,212.270187 1971.705322,208.916504 
	C1961.312500,205.864548 1951.435913,201.305481 1945.096680,192.047638 
	C1935.762207,178.415604 1937.574341,158.949799 1947.281738,146.119675 
	C1955.224365,135.621841 1966.357422,130.817352 1978.522827,128.323563 
	C1997.892456,124.352936 2017.007935,126.081474 2036.005859,132.973007 
z"/>
<path fill="#181C1F" opacity="1.000000" stroke="none" 
	d="
M1136.000000,189.000000 
	C1136.006226,169.178329 1136.011841,149.856674 1136.027100,130.535004 
	C1136.027344,130.221954 1136.147217,129.909012 1136.331665,129.008423 
	C1141.636597,129.008423 1147.257080,128.162460 1152.415527,129.340149 
	C1155.299927,129.998672 1157.639648,133.834747 1159.842407,136.549316 
	C1168.968506,147.796249 1177.946777,159.163223 1186.983521,170.482727 
	C1197.340820,183.456345 1207.674683,196.448792 1218.072998,209.389496 
	C1224.075928,216.860168 1230.185913,224.244797 1236.794434,232.337708 
	C1236.794434,197.580948 1236.794434,163.588181 1236.794434,129.298630 
	C1243.946167,129.298630 1250.681396,129.298630 1257.709961,129.298630 
	C1257.709961,176.286423 1257.709961,223.336029 1257.709961,270.998108 
	C1252.548462,270.998108 1247.288452,271.051544 1242.032104,270.936157 
	C1241.307373,270.920258 1240.420410,270.213074 1239.912231,269.581573 
	C1224.804077,250.806046 1209.758667,231.980026 1194.650513,213.204422 
	C1183.308594,199.109329 1171.891357,185.074707 1160.516846,171.005783 
	C1159.695679,169.990128 1158.948853,168.914352 1157.189453,168.414795 
	C1157.189453,202.416718 1157.189453,236.418655 1157.189453,270.709290 
	C1150.036987,270.709290 1143.302124,270.709290 1136.000000,270.709290 
	C1136.000000,243.666473 1136.000000,216.583237 1136.000000,189.000000 
z"/>
<path fill="#5071BF" opacity="1.000000" stroke="none" 
	d="
M3.089356,130.477722 
	C6.797254,137.054214 10.948367,143.373215 19.053699,146.272491 
	C27.038492,149.128677 34.419201,148.377899 41.541203,144.197571 
	C58.457466,134.268356 75.321320,124.249756 92.193146,114.244995 
	C125.365143,94.574417 158.531982,74.895164 191.689774,55.200634 
	C195.632278,52.858925 199.470581,52.894474 203.392227,55.237431 
	C230.220245,71.265625 257.050354,87.290382 283.899780,103.282692 
	C307.321991,117.233643 330.689545,131.279099 354.234497,145.020218 
	C371.007385,154.809067 389.013336,146.163773 393.598022,126.325455 
	C396.245911,147.185287 382.611725,160.364059 365.035217,163.753189 
	C354.114594,165.858902 344.144745,162.194809 334.687653,156.312790 
	C311.649628,141.983856 288.342194,128.088013 265.135834,114.029938 
	C247.803467,103.530205 230.200790,93.447807 213.216431,82.413132 
	C202.784714,75.635689 193.597183,75.806190 183.163025,82.257622 
	C151.607178,101.768608 119.741806,120.778801 88.011978,140.008774 
	C78.088135,146.023163 68.297050,152.260986 58.294498,158.140137 
	C41.089802,168.252457 21.469955,165.199036 9.003925,150.210434 
	C4.632925,144.954941 1.966932,138.295700 3.089356,130.477722 
z"/>
<path fill="#181C1F" opacity="1.000000" stroke="none" 
	d="
M980.000000,155.053772 
	C980.000000,166.846085 980.000000,178.146851 980.000000,190.000000 
	C992.018799,190.000000 1003.781677,190.000000 1015.544495,190.000000 
	C1027.178589,190.000000 1038.812622,190.000000 1050.722656,190.000000 
	C1050.722656,195.992264 1050.722656,201.726181 1050.722656,207.872894 
	C1027.327271,207.872894 1003.930481,207.872894 980.268433,207.872894 
	C980.268433,222.675858 980.268433,237.073288 980.268433,251.879013 
	C1007.347046,251.879013 1034.408569,251.879013 1061.733643,251.879013 
	C1061.733643,258.348389 1061.733643,264.415344 1061.733643,270.742981 
	C1027.640503,270.742981 993.584229,270.742981 959.263611,270.742981 
	C959.263611,223.658432 959.263611,176.607056 959.263611,129.277588 
	C992.318481,129.277588 1025.375244,129.277588 1058.716431,129.277588 
	C1058.716431,134.978973 1058.716431,140.712891 1058.716431,146.859161 
	C1032.673706,146.859161 1006.611572,146.859161 980.000000,146.859161 
	C980.000000,149.690887 980.000000,152.126572 980.000000,155.053772 
z"/>
<path fill="#181C1F" opacity="1.000000" stroke="none" 
	d="
M526.715149,189.278946 
	C512.295776,169.173904 521.907104,140.417191 545.561646,132.007324 
	C555.625061,128.429504 565.996460,126.325958 576.692261,127.060242 
	C590.310791,127.995178 603.620117,130.353806 615.892761,136.924835 
	C619.476074,138.843460 621.070862,140.623428 618.798279,144.748428 
	C616.659058,148.631454 615.258911,152.921631 613.463989,157.198593 
	C602.943542,150.608124 591.884033,147.008011 579.666199,145.711533 
	C571.602661,144.855881 564.162354,145.808792 556.726379,148.056335 
	C546.631165,151.107635 541.035583,158.234085 541.000000,167.265671 
	C540.969116,175.101562 546.717957,181.931381 556.634949,184.949677 
	C570.467896,189.159775 584.501648,192.720139 598.287842,197.070663 
	C611.320251,201.183304 621.635071,208.248642 625.416870,222.728622 
	C628.612427,234.963821 622.607605,253.741302 612.299316,260.987885 
	C601.463867,268.605042 589.352112,271.627930 576.265808,272.064270 
	C560.053467,272.604797 544.423950,270.480804 529.746826,263.272705 
	C515.855042,256.450317 515.568542,255.521774 522.024170,241.947449 
	C522.699402,240.527740 523.609619,239.219788 524.647949,237.457489 
	C533.958008,245.434540 544.517578,249.982224 555.960266,252.457764 
	C568.140991,255.092957 580.325684,255.009796 592.199036,250.890045 
	C602.359070,247.364807 607.714600,236.567413 603.931213,226.918976 
	C601.388611,220.434906 595.581238,217.004456 589.297119,215.087784 
	C577.307739,211.430969 565.097717,208.502808 553.075317,204.947403 
	C543.144409,202.010498 533.426636,198.479065 526.715149,189.278946 
z"/>
<path fill="#181C1F" opacity="1.000000" stroke="none" 
	d="
M1411.000000,129.000000 
	C1420.472656,129.000000 1429.445190,129.000000 1438.708008,129.000000 
	C1438.708008,134.962524 1438.708008,140.696808 1438.708008,146.847260 
	C1422.689209,146.847260 1406.621826,146.847260 1390.161377,146.847260 
	C1390.161377,188.310272 1390.161377,229.364609 1390.161377,270.708740 
	C1383.038086,270.708740 1376.303101,270.708740 1369.167480,270.708740 
	C1369.167480,229.695694 1369.167480,188.641418 1369.167480,147.175903 
	C1353.045898,147.175903 1337.311768,147.175903 1321.290771,147.175903 
	C1321.290771,141.035248 1321.290771,135.300995 1321.290771,129.000000 
	C1351.000977,129.000000 1380.750488,129.000000 1411.000000,129.000000 
z"/>
<path fill="#181C1F" opacity="1.000000" stroke="none" 
	d="
M822.000000,202.000000 
	C822.000000,218.804001 822.000000,235.108017 822.000000,251.820709 
	C847.620300,251.820709 873.017334,251.820709 898.705933,251.820709 
	C898.705933,258.291168 898.705933,264.359650 898.705933,270.715851 
	C866.359680,270.715851 833.967407,270.715851 801.287109,270.715851 
	C801.287109,223.703186 801.287109,176.649094 801.287109,129.297211 
	C807.949768,129.297211 814.685608,129.297211 822.000000,129.297211 
	C822.000000,153.325653 822.000000,177.412827 822.000000,202.000000 
z"/>
<path fill="#181C1F" opacity="1.000000" stroke="none" 
	d="
M697.000000,173.000000 
	C697.000000,158.195221 697.000000,143.890442 697.000000,129.293427 
	C703.957825,129.293427 710.693604,129.293427 717.716187,129.293427 
	C717.716187,176.303757 717.716187,223.358093 717.716187,270.706482 
	C711.041626,270.706482 704.306885,270.706482 697.000000,270.706482 
	C697.000000,238.335098 697.000000,205.917557 697.000000,173.000000 
z"/>
<path fill="#5D86E4" opacity="1.000000" stroke="none" 
	d="
M395.393494,363.894470 
	C395.022491,333.470093 395.007935,302.792755 395.013306,272.115448 
	C395.013519,270.968842 395.207642,269.822296 395.579834,268.367004 
	C395.816620,299.919373 395.784973,331.780457 395.393494,363.894470 
z"/>
<path fill="#5071BF" opacity="1.000000" stroke="none" 
	d="
M394.337402,368.921753 
	C394.141541,368.229584 394.251648,367.381592 394.598206,366.312866 
	C394.770905,366.983398 394.707123,367.874634 394.337402,368.921753 
z"/>
<path fill="#5071BF" opacity="1.000000" stroke="none" 
	d="
M3.005594,368.743103 
	C2.659574,368.294891 2.352477,367.514557 2.096949,366.388977 
	C2.447184,366.832794 2.745851,367.621887 3.005594,368.743103 
z"/>
<path fill="#FFFFFF" opacity="1.000000" stroke="none" 
	d="
M1649.000000,180.931763 
	C1648.826294,193.063843 1638.316772,203.636795 1626.097168,203.943100 
	C1615.287598,204.214050 1604.465942,203.999863 1593.325073,203.999863 
	C1593.325073,188.104492 1593.325073,172.370743 1593.325073,156.004913 
	C1607.196411,156.649475 1621.451660,153.771652 1635.052612,159.117905 
	C1642.358276,161.989563 1649.446777,168.885345 1649.000000,180.931763 
z"/>
</svg>